# xmcd
#
# Track frame offsets:
#	150
#	16722
#	32770
#	53832
#	67897
#
# Disc length: 1147 seconds
#
# Revision: 1
# Processed by: cddbd v1.5.2PL0 Copyright (c) Steve Scherf et al.
# Submitted via: audiograbber 1.83.01
#
DISCID=32047905
DTITLE=101 - Aamuyö [CDM)
DYEAR=1995
DGENRE=Dance
TTITLE0=Aamuyö (Rekee Remix)
TTITLE1=Sommartider
TTITLE2=Aamuyö
TTITLE3=Morning Light
TTITLE4=Aamuyö (Rave Remix)
EXTD=TR.
EXTT0=
EXTT1=
EXTT2=
EXTT3=
EXTT4=
PLAYORDER=
